<svg width="25" height="24" viewBox="0 0 25 24" fill="none" xmlns="http://www.w3.org/2000/svg">
<g id="Group 14">
<g id="vuesax/bold/calendar-2">
<g id="calendar-2">
<path id="Vector" d="M17.4481 4.31355V2.82411C17.4481 2.43265 17.0939 2.10803 16.6669 2.10803C16.2398 2.10803 15.8856 2.43265 15.8856 2.82411V4.25627H9.11478V2.82411C9.11478 2.43265 8.76061 2.10803 8.33353 2.10803C7.90645 2.10803 7.55228 2.43265 7.55228 2.82411V4.31355C4.73978 4.55225 3.3752 6.08943 3.16686 8.37133C3.14603 8.64821 3.39603 8.87736 3.6877 8.87736H21.3127C21.6148 8.87736 21.8648 8.63866 21.8335 8.37133C21.6252 6.08943 20.2606 4.55225 17.4481 4.31355Z" fill="#35AFF4"/>
<path id="Vector_2" d="M20.8332 10.3093H4.16654C3.59363 10.3093 3.12488 10.739 3.12488 11.2641V17.1455C3.12488 20.0098 4.68738 21.9193 8.33321 21.9193H16.6665C20.3124 21.9193 21.8749 20.0098 21.8749 17.1455V11.2641C21.8749 10.739 21.4061 10.3093 20.8332 10.3093ZM9.59363 18.3008C9.48946 18.3867 9.37488 18.4535 9.24988 18.5013C9.12488 18.549 8.98946 18.5776 8.85404 18.5776C8.71863 18.5776 8.58321 18.549 8.45821 18.5013C8.33321 18.4535 8.21863 18.3867 8.11446 18.3008C7.92696 18.1194 7.81238 17.8711 7.81238 17.6229C7.81238 17.3746 7.92696 17.1264 8.11446 16.945C8.21863 16.8591 8.33321 16.7922 8.45821 16.7445C8.70821 16.649 8.99988 16.649 9.24988 16.7445C9.37488 16.7922 9.48946 16.8591 9.59363 16.945C9.78113 17.1264 9.89571 17.3746 9.89571 17.6229C9.89571 17.8711 9.78113 18.1194 9.59363 18.3008ZM9.81238 14.644C9.76029 14.7586 9.68738 14.8636 9.59363 14.9591C9.48946 15.045 9.37488 15.1118 9.24988 15.1596C9.12488 15.2073 8.98946 15.2359 8.85404 15.2359C8.71863 15.2359 8.58321 15.2073 8.45821 15.1596C8.33321 15.1118 8.21863 15.045 8.11446 14.9591C8.02071 14.8636 7.94779 14.7586 7.89571 14.644C7.84363 14.5294 7.81238 14.4053 7.81238 14.2812C7.81238 14.1571 7.84363 14.0329 7.89571 13.9184C7.94779 13.8038 8.02071 13.6988 8.11446 13.6033C8.21863 13.5174 8.33321 13.4505 8.45821 13.4028C8.70821 13.3073 8.99988 13.3073 9.24988 13.4028C9.37488 13.4505 9.48946 13.5174 9.59363 13.6033C9.68738 13.6988 9.76029 13.8038 9.81238 13.9184C9.86446 14.0329 9.89571 14.1571 9.89571 14.2812C9.89571 14.4053 9.86446 14.5294 9.81238 14.644ZM13.2395 14.9591C13.1353 15.045 13.0207 15.1118 12.8957 15.1596C12.7707 15.2073 12.6353 15.2359 12.4999 15.2359C12.3645 15.2359 12.229 15.2073 12.104 15.1596C11.979 15.1118 11.8645 15.045 11.7603 14.9591C11.5728 14.7777 11.4582 14.5294 11.4582 14.2812C11.4582 14.0329 11.5728 13.7847 11.7603 13.6033C11.8645 13.5174 11.979 13.4505 12.104 13.4028C12.354 13.2978 12.6457 13.2978 12.8957 13.4028C13.0207 13.4505 13.1353 13.5174 13.2395 13.6033C13.427 13.7847 13.5415 14.0329 13.5415 14.2812C13.5415 14.5294 13.427 14.7777 13.2395 14.9591Z" fill="#35AFF4"/>
</g>
</g>
</g>
</svg>
