<svg width="25" height="25" viewBox="0 0 25 25" fill="none" xmlns="http://www.w3.org/2000/svg">
<g id="vuesax/bold/map">
<path id="Vector" d="M7.83383 3.91542C8.01472 3.81664 8.20702 3.96844 8.20702 4.17455V17.8674C8.20702 18.0906 8.05473 18.2794 7.85724 18.3834C7.84938 18.3875 7.84158 18.3917 7.83383 18.3959L5.46355 19.749C3.8094 20.6982 2.44775 19.9106 2.44775 17.992V8.16666C2.44775 7.53049 2.90164 6.74285 3.46647 6.41972L7.83383 3.91542Z" fill="#35AFF4"/>
<path id="Vector_2" d="M14.9894 6.47377C15.1597 6.55817 15.2673 6.73174 15.2673 6.92173V20.2143C15.2673 20.5829 14.8821 20.8248 14.5501 20.6647L10.2548 18.5929C10.0819 18.5095 9.97205 18.3345 9.97205 18.1425V4.79207C9.97205 4.42111 10.3618 4.17933 10.6942 4.34411L14.9894 6.47377Z" fill="#35AFF4"/>
<path id="Vector_3" d="M22.3278 6.86404V16.6894C22.3278 17.3255 21.8739 18.1132 21.3091 18.4363L17.7813 20.4605C17.448 20.6517 17.0325 20.4111 17.0325 20.0268V6.69979C17.0325 6.52036 17.1286 6.35469 17.2844 6.26567L19.312 5.107C20.9661 4.15779 22.3278 4.94543 22.3278 6.86404Z" fill="#35AFF4"/>
</g>
</svg>
